<svg xmlns="http://www.w3.org/2000/svg" width="137.3" height="34.2"><path d="M0 13a1.49 1.49 0 01.6-.7 3.9 3.9 0 011.6-.2 9.2 9.2 0 013.4 2 29.84 29.84 0 013.2 3.1c.2-.5.7-1.4.7-1.4a42.46 42.46 0 00-6.1-4C2 11.3.2 11.1 0 13zm1.4-2.3c1.6-.5 1.8.6 2.1.9l1.2.7c-1.6-3.7-3.3-1.6-3.3-1.6z"/><path d="M2.1 12.6c3.8 2.8.6 4.1.6 4.1a1.36 1.36 0 001.7-.4l.3-.6a1.75 1.75 0 00.1-.5 40.57 40.57 0 013.8 4.9 11.15 11.15 0 01-.2-1.8c-1.2-1.4-1.5-1.9-2.3-2.7-2.2-2.7-4-3-4-3m16-.3a7.17 7.17 0 01-.1-2 8.8 8.8 0 00.5-1.5l.1.1.6.4a8.51 8.51 0 01-.6-1.7c0-.1 0-.1-.1-.2a4.13 4.13 0 00-.8-1.8 4.62 4.62 0 01.3 1.9c-.1 1.7-2.6 3.7-2 6.7a5.73 5.73 0 002 3 15.49 15.49 0 01-.9-3.2 4.13 4.13 0 01.5-2.5l.2.1z"/><path d="M35.1.5a57.16 57.16 0 00-6.5 1.4c-2.1.7-5.3 2-6.7 3.8s-.2 4.6-.6 6.5-3.2 3.8-3.2 3.8 3.3-.9 4.4-3.5c.9-1.9-.2-3.3 1.1-6.2S35.1.5 35.1.5z"/><path d="M35.2.7a7.9 7.9 0 00-4.8 4.6L32 5s.1-2.2 3.2-4.3zm5.7 4.8a27 27 0 00-11.2.5c-5.6 1.7-4.8 4.5-4.9 6.1s-1.4 5.2-6.4 4.8a5.59 5.59 0 006.1-1c3.2-2.6 1-5.8 3.6-7.3s4.7-2.7 12.8-3.1z"/><path d="M26.8 13.6a6.3 6.3 0 013.5 1.8 5.26 5.26 0 00-3.8-1 4.42 4.42 0 01.3-.8zm9.5-2.5s-5.3.1-5.4 4.6c-.1-.1-2.9-5 5.4-4.6zm4.2-5.3c-5.4 1.1-4.2 5.3-4.2 5.3-2.7-5.4 4.2-5.3 4.2-5.3zm-14.9 14a6.16 6.16 0 015.3-4c-4.1-.8-5.1 1.2-5.3 2.7a36.39 36.39 0 00-6.4-.7 18.4 18.4 0 016.4 2zM3.7 31.1a3.64 3.64 0 011.9-.4 4.76 4.76 0 001.8-.4 13.09 13.09 0 00-2.7-.5c-1.1.1-1 1.3-1 1.3zm19.9-2.8a.79.79 0 01.7-.9 4.64 4.64 0 012 .4 6.3 6.3 0 01-1.3.3 2.66 2.66 0 00-1.4.2zm7.6 3.2a3.08 3.08 0 011.7-.3 6.09 6.09 0 001.4 0c-.4 0-1.2-.9-2.2-.7a.87.87 0 00-.9 1zm4.7-20.6c-6.5-1.5-8.5-.4-8.5-.4a2 2 0 00.2-.6c.2-.3.2-.4.2-.5a19.26 19.26 0 018.1 1.5zm-25-4.1A2.44 2.44 0 009.3 6C8.1 6 7 7.4 6 7.4A3.25 3.25 0 014.3 7a2.43 2.43 0 001.7.9c1.4 0 2.4-1.3 3.3-1.3a5.53 5.53 0 011.6.2zm2.9 1.4a6.26 6.26 0 01.1 2c-.1 2.2-4.3 5.2-4.3 8.8a5.18 5.18 0 001.6 3.4 8.61 8.61 0 01-.4-3.8c.4-2.6 3.7-5.7 3.6-8.2a3.51 3.51 0 00-.6-2.2z"/><path d="M11.7 22.3a4.85 4.85 0 01-.2-2.8c.3-.9 1.1-1.6 2.7-2 0 0-2.8 2.6-.7 4.8a9.87 9.87 0 00-2 2.9c-.6 1.3-1.8 4.2-2.2 4.8a5.42 5.42 0 01-2.6 2.2c-1.7.1-3.7.4-3.8 1.7a1.75 1.75 0 01-.3-1.2c.1-.9 1.5-1.9 3-1.8a3.21 3.21 0 003.6-2.1 61 61 0 012.5-6.5z"/><path d="M14.1 22.5s-2.3 7-6.4 9.7a10.41 10.41 0 013.2-.1c.7.3 1.5.8.8 2 0 0 1.4-.8 1.1-2-.3-1-1.8-1-1.8-1s-.4-.2-.2-.8 1.8-2.6 2-3 2.2-3.4 2.3-3.6a2.49 2.49 0 002.6-1.4c.9-1.8-1-3.4-1-3.4s.8 1.9-.1 2.8a3.17 3.17 0 01-2.5.8z"/><path d="M16.1 24.1a3.74 3.74 0 001.1-.4s.4.4 2 .4h.3a30.62 30.62 0 007.5-2.3l.4.6c-2.7.9-5.9 3.5-10 3-.3-.1-1.7-.3-1.9-.4.1-.1.6-.9.6-.9zm11.7 3.4a3.86 3.86 0 01-2 1.7c-1.2 0-2.7.3-2.8 1.3a1 1 0 01-.2-.9c0-.6.9-1.4 2.2-1.3a2.05 2.05 0 002.3-1.7c.3-.9 0-2.6.4-3.7 0 0 .6.5.9.7l-.1.3c-.4 1.1-.2 2.5-.7 3.6zm1.7-3.4a7.23 7.23 0 00.7.4 4.77 4.77 0 00-.4 1.2c-.1.3-.5 1.6-.7 2.1s.1.6.1.6 1.1.1 1.3.8c.3.9-.8 1.5-.8 1.5.5-.9-.1-1.3-.6-1.5a6.88 6.88 0 00-2.2.1c1.7-1.1 2.3-4.6 2.6-5.2z"/><path d="M36.1 31.2s.5 1 .2 1.3c-1.1.1-1.8 0-3.4.2-1.4.2-2.4.3-2.5 1.5a1.59 1.59 0 01-.3-1.1c.1-.8 1.3-1.7 2.7-1.6a6.37 6.37 0 001.9-.1c.4-.2-.6-2.2-.8-2.6-1.5-3-1.5-4-1.5-4.2 0 0-4.2-.8-5.3-3.7 3.4 2.8 6.1 2.8 6.1 2.8a56.66 56.66 0 002.9 7.5zm1.1-15.9h1.2c1.8-3.9 5-8 5-10.4a4.08 4.08 0 00-1.1-2.6l-.2.6A10.67 10.67 0 0040.6.4a19.5 19.5 0 012.7 1.3l-.5.1a4.13 4.13 0 011.2 3c.1 2.8-3 6.1-4.8 10.4 4 .5 6.8 3 6.8 5.7 0 3.8-2.3 5.2-4.4 5.2a4.84 4.84 0 01-2.6-.7c-1-.5-2-1.7-2-4.1a10.91 10.91 0 01.9-4.7q-1.5.15-2.7.3l-1.1.3a4.21 4.21 0 012.1 2.7 7.22 7.22 0 01-.4 3.7 15.31 15.31 0 001.1 5.4l.6 1.5a1.67 1.67 0 00.8.9s1.2.2 1.5.9a1.06 1.06 0 01-.3 1.4c.3-1.1-.7-1.3-1.3-1.3h-.1a6.73 6.73 0 00-1-.1 12 12 0 00-.6-2.3s-1-2.7-1.3-4a24.55 24.55 0 01-.7-3s2.8-4.8-3.5-6.9a1.86 1.86 0 01.8 0 10.43 10.43 0 011.7-.5c.9-.1 2.2-.2 3.7-.3zm1.6 1.3a13.47 13.47 0 00-.8 5c.1 1.7 1.1 4 3.8 3.7a3.31 3.31 0 002.7-1.9 5.63 5.63 0 00.5-2.1 4.28 4.28 0 00-1.6-3.2 7 7 0 00-4.6-1.5M10.6 4.3s-2.2-.7-3.6.4l.7 1.2a2.33 2.33 0 013.6.7 3.83 3.83 0 01-3.6 1.1A2.56 2.56 0 0010 8.8c1.6 0 3.2-1.7 3.7-1.1 0 0-.2-2.3 2.7-3.2a3 3 0 01.7.8 3.16 3.16 0 00.9-2.5A3.25 3.25 0 0016.6.1a3.73 3.73 0 01-.3 2.1 2.12 2.12 0 01-1.8 1.3 4.76 4.76 0 01-1.3-.2c-.4-.1-2.5-.8-2.6 1zm2.4-.1s-.7 1.2-1.7.5c0 0 0-.7.6-.6s.5.2 1.1.1zM60.2 7h1v6.6h2.5v.8h-3.4L60.2 7zm4.3-.5h.9v8h-.9zm4 9.1c-.3.9-.6 1.3-1.3 1.3a1.27 1.27 0 01-.6-.1l.1-.8a.9.9 0 00.5.1c.3 0 .4-.1.6-.7l.2-.9-1.7-5.6h1l1.2 4.4 1.1-4.4h.9zm7.7-1.1h-1l-1.1-4.6-1.1 4.6h-1l-1.4-5.4h1l1 4.5 1-4.5h1.1l1.1 4.5 1-4.5h.9zM80.4 9c1.4 0 2.2 1.1 2.2 2.8s-.7 2.8-2.2 2.8-2.2-1.1-2.2-2.8.7-2.8 2.2-2.8zm0 4.8c.9 0 1.2-.7 1.2-2.1s-.4-2.1-1.2-2.1-1.2.7-1.2 2.1.3 2.1 1.2 2.1zm7.1-.3c0 .3.1.7.1 1h-.9l-.1-.8a1.5 1.5 0 01-1.4.9c-1.1 0-1.9-.9-1.9-2.8S84 9 85.2 9a1.72 1.72 0 011.4.8V6.5h.9zm-2.1-3.8q-1.2 0-1.2 2.1t1.2 2.1q1.2 0 1.2-2.1t-1.2-2.1zm3.3.5c0-.4-.1-.8-.1-1.2h.9l.1.9a1.46 1.46 0 011.5-.9v.9c-.1 0-.2-.1-.3-.1-.7 0-1.2.6-1.2 1.8v2.9h-.9zm3.4-.8a2.6 2.6 0 011.5-.4 1.68 1.68 0 011.4.5 1.76 1.76 0 01.5 1.3v2.8a2.77 2.77 0 00.1.9h-.8l-.1-.7a1.73 1.73 0 01-1.5.8 1.37 1.37 0 01-1.5-1.5c0-1.1.7-1.8 2.6-1.8h.5V11a2.39 2.39 0 00-.2-.9c-.2-.3-.5-.3-.9-.3a1.82 1.82 0 00-1.4.6zm2.6 2.4h-.6c-1.1 0-1.5.5-1.5 1.1s.3 1 .9 1a1.29 1.29 0 001.3-1.4v-.7zm2.8.2c0 1.3.5 1.9 1.5 1.9a2.14 2.14 0 001.2-.4l.1.8a3.65 3.65 0 01-1.5.3c-1.4 0-2.2-1.1-2.2-2.8S97.3 9 98.7 9c1.2 0 1.9 1 1.9 2.6v.5l-3.1-.1zm2.2-.6c0-1.1-.4-1.7-1.1-1.7s-1.1.4-1.1 1.7zm4.3 3a1.85 1.85 0 01-.7.2c-.8 0-1.3-.3-1.3-1.3V9.8h-.9v-.7h.9V7.9l.9-.3V9h1.1v.7h-1.1v3.2q0 .9.6.9a.76.76 0 00.5-.2v.8zm.7-7.9h.9v3.3a1.34 1.34 0 011.3-.8c1 0 1.6.5 1.6 1.8v3.8h-.9v-3.5c0-.9-.3-1.2-.9-1.2s-1.2.5-1.2 1.5v3.3h-.9l.1-8.2zm12.3 7.9a3 3 0 01-1.3.2c-2.3 0-3.4-1.8-3.4-3.8 0-2.3 1.3-3.8 3.3-3.8a2.9 2.9 0 011.4.3v.9a2.3 2.3 0 00-1.4-.4c-1.2 0-2.3 1-2.3 2.8s.7 3.2 2.4 3.2a1.84 1.84 0 001.3-.4zm2.9 1.2c-.3.9-.6 1.3-1.3 1.3a1.27 1.27 0 01-.6-.1l.1-.8a.9.9 0 00.5.1c.3 0 .4-.1.6-.7l.2-.9-1.7-5.6h1l1.2 4.4 1.1-4.4h.9zm2.6-5.4c0-.4-.1-.8-.1-1.2h.9l.1.8a1.39 1.39 0 012.6 0 1.54 1.54 0 011.3-.9c1 0 1.6.5 1.6 1.8v3.8h-.9v-3.7c0-.7-.3-1-.9-1s-1 .4-1 1.4v3.4h-.9v-3.7c0-.7-.3-1-.9-1s-1 .4-1 1.4v3.4h-.9l.1-4.5zm7.7 0c0-.4-.1-.8-.1-1.2h.9l.1.9a1.46 1.46 0 011.5-.9v.9c-.1 0-.2-.1-.3-.1-.7 0-1.2.6-1.2 1.8v2.9h-.9zm7 3.1c0 .4.1.8.1 1.2h-.9l-.1-.8a1.42 1.42 0 01-1.4.9c-1 0-1.6-.5-1.6-1.8V9h.9v3.6c0 .9.3 1.2.9 1.2s1.2-.5 1.2-1.5V9h.9v4.3zm-77.7 6.6h1l1.2 6 1.3-6h1.2l1.3 6 1.3-6h.9L66 27.4h-1.1L63.5 21l-1.4 6.4H61zm9.6 4.9c0 1.3.5 1.9 1.5 1.9a2.84 2.84 0 001.3-.4l.1.8a3.65 3.65 0 01-1.5.3c-1.4 0-2.2-1.1-2.2-2.8s.7-2.8 2.1-2.8c1.2 0 1.9 1 1.9 2.6v.5l-3.2-.1zm2.2-.6c0-1.1-.4-1.7-1.1-1.7s-1.1.4-1.1 1.7zm2-4.9h.9v8h-.9zm2.1 7a2.2 2.2 0 001.3.4c.7 0 1.1-.4 1.1-.7s-.2-.6-.7-.9l-.6-.3c-.8-.4-1.1-.7-1.1-1.4a1.64 1.64 0 011.8-1.6 4.3 4.3 0 011.2.2l-.1.7c-.3 0-.7-.1-1.1-.1-.6 0-.9.3-.9.7s.3.7.9.9l.3.1c.7.3 1.1.7 1.1 1.4 0 1-.5 1.7-1.8 1.7a3.34 3.34 0 01-1.5-.3zm4.2-7h.9v3.3a1.34 1.34 0 011.3-.8c1 0 1.6.5 1.6 1.8v3.8h-.9v-3.5c0-.9-.3-1.2-.9-1.2s-1.2.5-1.2 1.5v3.3h-.9l.1-8.2zM92.5 27a4.88 4.88 0 01-1.9.4c-2.4 0-3.4-1.8-3.4-3.8 0-2.3 1.4-3.8 3.3-3.8a5.66 5.66 0 011.8.3v1a4.07 4.07 0 00-1.8-.5c-1.2 0-2.3 1-2.3 2.8s.8 3.2 2.4 3.2a3.55 3.55 0 001-.2v-2.3h-1.3v-.8h2.2V27zm3.5-5.2c1.4 0 2.2 1.1 2.2 2.8s-.7 2.8-2.2 2.8-2.2-1.1-2.2-2.8.7-2.8 2.2-2.8zm0 4.8c.9 0 1.3-.7 1.3-2.1s-.4-2.1-1.3-2.1-1.3.7-1.3 2.1.4 2.1 1.3 2.1zm2.6-4.8h1l1.2 4.5 1.2-4.5h1l-1.7 5.4h-1.1zm5.9 3c0 1.3.5 1.9 1.5 1.9a2.84 2.84 0 001.3-.4l.1.8a3.65 3.65 0 01-1.5.3c-1.4 0-2.2-1.1-2.2-2.8s.7-2.8 2.1-2.8c1.2 0 1.9 1 1.9 2.6v.5l-3.2-.1zm2.2-.6c0-1.1-.4-1.7-1.1-1.7s-1.1.4-1.1 1.7zm1.9-1.2c0-.4-.1-.8-.1-1.2h.9l.1.9a1.46 1.46 0 011.5-.9v.9c-.1 0-.2-.1-.3-.1-.7 0-1.2.6-1.2 1.8v2.9h-.9zm3.2 0c0-.4-.1-.8-.1-1.2h.9l.1.8a1.42 1.42 0 011.4-.9c1 0 1.6.5 1.6 1.8v3.8h-.9v-3.5c0-.9-.3-1.2-.9-1.2s-1.2.5-1.2 1.5v3.3h-.9V23zm5.2 0c0-.4-.1-.8-.1-1.2h.9l.1.8a1.39 1.39 0 012.6 0 1.54 1.54 0 011.3-.9c1 0 1.6.5 1.6 1.8v3.8h-.9v-3.7c0-.7-.3-1-.9-1s-1 .4-1 1.4v3.4h-.9v-3.7c0-.7-.3-1-.9-1s-1 .4-1 1.4v3.4h-.9l.1-4.5zm8.4 1.8c0 1.3.5 1.9 1.5 1.9a2.84 2.84 0 001.3-.4l.1.8a3.65 3.65 0 01-1.5.3c-1.4 0-2.2-1.1-2.2-2.8s.7-2.8 2.1-2.8c1.2 0 1.9 1 1.9 2.6v.5l-3.2-.1zm2.3-.6c0-1.1-.4-1.7-1.1-1.7s-1.1.4-1.1 1.7zm1.8-1.2c0-.4-.1-.8-.1-1.2h.9l.1.8a1.42 1.42 0 011.4-.9c1 0 1.6.5 1.6 1.8v3.8h-.9v-3.5c0-.9-.3-1.2-.9-1.2s-1.2.5-1.2 1.5v3.3h-.9V23zm7.7 4.2a1.85 1.85 0 01-.7.2c-.9 0-1.3-.3-1.3-1.3v-3.5h-.9v-.7h.9v-1.1l.9-.3v1.4h1.1v.7H136v3.2q0 .9.6.9a1.42 1.42 0 00.6-.2v.7z"/><path d="M52.5 0v34.2" fill="none" stroke="#000"/></svg>